<?xml version="1.0" encoding="utf-8"?>
<svg version="1.1" xmlns:xlink="http://www.w3.org/1999/xlink" width="18px" height="20px" xmlns="http://www.w3.org/2000/svg">
  <g transform="matrix(1 0 0 1 -1 0 )">
    <path d="M 4 10  L 9 5  L 14 10  L 11 10  L 11 14  L 7 14  L 7 10  L 4 10  Z M 18 5.5  L 18 14.5  C 18 14.879999999999999  17.79 15.21  17.47 15.38  L 9.57 19.82  C 9.41 19.94  9.21 20  9 20  C 8.79 20  8.59 19.94  8.43 19.82  L 0.53 15.38  C 0.20999999999999996 15.21  0 14.879999999999999  0 14.5  L 0 5.5  C 0 5.12  0.20999999999999996 4.79  0.53 4.62  L 8.43 0.18  C 8.59 0.06  8.79 0  9 0  C 9.21 0  9.41 0.06  9.57 0.18  L 17.47 4.62  C 17.79 4.79  18 5.12  18 5.5  Z M 16 6.09  L 9 2.15  L 2 6.09  L 2 13.91  L 9 17.85  L 16 13.91  L 16 6.09  Z " fill-rule="nonzero" fill="#ffffff" stroke="none" transform="matrix(1 0 0 1 1 0 )" />
  </g>
</svg>