<?xml version="1.0" encoding="utf-8"?>
<svg version="1.1" xmlns:xlink="http://www.w3.org/1999/xlink" width="18px" height="20px" xmlns="http://www.w3.org/2000/svg">
  <g transform="matrix(1 0 0 1 -6 -5 )">
    <path d="M 18 4  C 18 2.8954305  17.1045695 2  16 2  L 11.82 2  C 11.4 0.84  10.3 0  9 0  C 7.7 0  6.6 0.84  6.18 2  L 2 2  C 0.8954305 2  0 2.8954305  0 4  L 0 18  C 0 19.1045695  0.8954305 20  2 20  L 16 20  C 17.1045695 20  18 19.1045695  18 18  L 18 4  Z M 8 3  C 8 2.44771525  8.4477153 2  9 2  C 9.5522847 2  10 2.44771525  10 3  C 10 3.55228475  9.5522847 4  9 4  C 8.4477153 4  8 3.55228475  8 3  Z M 4 4  L 4 6  L 14 6  L 14 4  L 16 4  L 16 18  L 2 18  L 2 4  L 4 4  Z M 8 16  L 4.5 12.5  L 6 11  L 8 13  L 12.5 8.5  L 14 10  L 8 16  Z " fill-rule="nonzero" fill="#505050" stroke="none" transform="matrix(1 0 0 1 6 5 )" />
  </g>
</svg>