<?xml version="1.0" encoding="utf-8"?>
<svg version="1.1" xmlns:xlink="http://www.w3.org/1999/xlink" width="16px" height="20px" xmlns="http://www.w3.org/2000/svg">
  <g transform="matrix(1 0 0 1 -7 -5 )">
    <path d="M 10 0  L 2 0  C 0.8954305 0  0 0.8954305  0 2  L 0 18  C 0 19.1045695  0.8954305 20  2 20  L 14 20  C 15.1045695 20  16 19.1045695  16 18  L 16 6  L 10 0  Z M 2 18  L 2 2  L 9 2  L 9 7  L 14 7  L 14 18  L 2 18  Z M 12 10  L 4 10  L 4 12  L 12 12  L 12 10  Z M 9 14  L 4 14  L 4 16  L 9 16  L 9 14  Z " fill-rule="nonzero" fill="#505050" stroke="none" transform="matrix(1 0 0 1 7 5 )" />
  </g>
</svg>