<?xml version="1.0" encoding="utf-8"?>
<svg version="1.1" xmlns:xlink="http://www.w3.org/1999/xlink" width="13px" height="20px" xmlns="http://www.w3.org/2000/svg">
  <g transform="matrix(1 0 0 1 -745 -20 )">
    <path d="M 12.4090909090909 13.6666666666667  C 12.4090909090909 10.5111111111111  9.53727272727273 9.43333333333333  6.85454545454546 8.77777777777778  C 4.17181818181818 8.12222222222222  3.30909090909091 7.44444444444445  3.30909090909091 6.38888888888889  C 3.30909090909091 5.17777777777778  4.50272727272727 4.33333333333333  6.5 4.33333333333333  C 8.60363636363636 4.33333333333333  9.38363636363636 5.27777777777778  9.45454545454546 6.66666666666667  L 12.0663636363636 6.66666666666667  C 11.9836363636364 4.75555555555556  10.7427272727273 3  8.27272727272727 2.43333333333333  L 8.27272727272727 0  L 4.72727272727273 0  L 4.72727272727273 2.4  C 2.43454545454546 2.86666666666667  0.590909090909091 4.26666666666667  0.590909090909091 6.41111111111111  C 0.590909090909091 8.97777777777778  2.84818181818182 10.2555555555556  6.14545454545454 11  C 9.1 11.6666666666667  9.69090909090909 12.6444444444444  9.69090909090909 13.6777777777778  C 9.69090909090909 14.4444444444444  9.11181818181818 15.6666666666667  6.5 15.6666666666667  C 4.06545454545454 15.6666666666667  3.10818181818182 14.6444444444444  2.97818181818182 13.3333333333333  L 0.378181818181817 13.3333333333333  C 0.519999999999999 15.7666666666667  2.45818181818182 17.1333333333333  4.72727272727273 17.5888888888889  L 4.72727272727273 20  L 8.27272727272727 20  L 8.27272727272727 17.6111111111111  C 10.5772727272727 17.2  12.4090909090909 15.9444444444444  12.4090909090909 13.6666666666667  Z " fill-rule="nonzero" fill="#000000" stroke="none" transform="matrix(1 0 0 1 745 20 )" />
  </g>
</svg>