<?xml version="1.0" encoding="utf-8"?>
<svg version="1.1" xmlns:xlink="http://www.w3.org/1999/xlink" width="18px" height="25px" xmlns="http://www.w3.org/2000/svg">
  <g transform="matrix(1 0 0 1 -6 0 )">
    <path d="M 11.355 8.473  L 12.822 7.007  L 17.47 9.62  C 17.79 9.79  18 10.12  18 10.5  L 18 19.5  C 18 19.88  17.79 20.21  17.47 20.38  L 9.57 24.82  C 9.41 24.94  9.21 25  9 25  C 8.79 25  8.59 24.94  8.43 24.82  L 0.53 20.38  C 0.21 20.21  0 19.88  0 19.5  L 0 10.5  C 0 10.12  0.21 9.79  0.53 9.62  L 5.178 7.007  L 6.644 8.473  L 3.04 10.5  L 9 13.85  L 14.96 10.5  L 11.355 8.473  Z M 8 15.58  L 2 12.21  L 2 18.91  L 8 22.29  L 8 15.58  Z M 16 18.91  L 16 12.21  L 10 15.58  L 10 22.29  L 16 18.91  Z M 8 0  L 10 0  L 10 4  L 13 4  L 9 8  L 5 4  L 8 4  L 8 0  Z " fill-rule="nonzero" fill="#505050" stroke="none" transform="matrix(1 0 0 1 6 0 )" />
  </g>
</svg>