<?xml version="1.0" encoding="utf-8"?>
<svg version="1.1" xmlns:xlink="http://www.w3.org/1999/xlink" width="21px" height="21px" xmlns="http://www.w3.org/2000/svg">
  <g transform="matrix(1 0 0 1 -740 -19 )">
    <path d="M 9 5  L 9 7  L 11 7  L 11 5  L 9 5  Z M 18 10  C 18 14.41  14.41 18  10 18  C 5.59 18  2 14.41  2 10  C 2 5.59  5.59 2  10 2  C 14.41 2  18 5.59  18 10  Z M 17.0710678 2.92893219  C 15.195704 1.0535684  12.6521649 0  10 0  C 4.4771525 0  0 4.4771525  0 10  C 0 12.6521649  1.0535684 15.195704  2.92893219 17.0710678  C 4.80429597 18.9464316  7.3478351 20  10 20  C 12.6521649 20  15.195704 18.9464316  17.0710678 17.0710678  C 18.9464316 15.195704  20 12.6521649  20 10  C 20 7.3478351  18.9464316 4.80429597  17.0710678 2.92893219  Z M 9 9  L 9 15  L 11 15  L 11 9  L 9 9  Z " fill-rule="nonzero" fill="#ffce4b" stroke="none" transform="matrix(1 0 0 1 740 19 )" />
  </g>
</svg>