<?xml version="1.0" encoding="utf-8"?>
<svg version="1.1" xmlns:xlink="http://www.w3.org/1999/xlink" width="19px" height="20px" xmlns="http://www.w3.org/2000/svg">
  <g transform="matrix(1 0 0 1 -5 -5 )">
    <path d="M 17.75 3.33  C 18.4403559 3.33  19 3.88964406  19 4.58  L 19 16.67  C 19 18.5091082  17.5091082 20  15.67 20  L 9.58 20  C 8.68 20  7.83 19.64  7.21 19  L 0.67 12.36  C 0.67 12.36  1.72 11.33  1.75 11.32  C 1.93 11.16  2.16 11.07  2.41 11.07  C 2.59 11.07  2.76 11.12  2.91 11.21  C 2.94 11.22  6.5 13.26  6.5 13.26  L 6.5 3.33  C 6.5 2.63964406  7.0596441 2.08  7.75 2.08  C 8.4403559 2.08  9 2.63964406  9 3.33  L 9 9.17  L 9.83 9.17  L 9.83 1.25  C 9.83 0.55964406  10.3896441 0  11.08 0  C 11.78 0  12.33 0.56  12.33 1.25  L 12.33 9.17  L 13.17 9.17  L 13.17 2.08  C 13.17 1.39  13.72 0.83  14.42 0.83  C 15.1103559 0.83  15.67 1.38964406  15.67 2.08  L 15.67 9.17  L 16.5 9.17  L 16.5 4.58  C 16.5 3.88964406  17.0596441 3.33  17.75 3.33  Z " fill-rule="nonzero" stroke="none" transform="matrix(1 0 0 1 5 5 )" />
  </g>
</svg>