<?xml version="1.0" encoding="utf-8"?>
<svg version="1.1" xmlns:xlink="http://www.w3.org/1999/xlink" width="120px" height="120px" xmlns="http://www.w3.org/2000/svg">
  <g transform="matrix(1 0 0 1 -660 -128 )">
    <path d="M 0 60  C 0 26.8627946  26.862794 0  60 0  C 93.137206 0  120 26.8627946  120 60  C 120 93.1372054  93.137206 120  60 120  C 26.862794 120  0 93.1372054  0 60  Z M 60.665238 43.9586746  C 60.789972 41.9289404  60.869346 38.096258  57.694342 37.9904246  C 54.772584 37.8921506  53.597076 41.1654278  53.517702 44.1703414  C 53.461006 46.2794506  54.288774 49.1482928  56.726722 50.6753182  C 56.639788 50.9739196  56.552854 51.2725212  56.45836 51.5673428  C 55.449162 54.821721  54.133804 57.3768426  52.357314 59.8147914  C 51.257402 61.322918  49.658562 62.8008064  48.131536 62.6685146  C 44.650372 62.3623536  44.382008 53.483684  44.416026 42.597959  C 44.419806 40.8592668  42.382512 39.8349502  40.549326 39.6762  C 38.413758 39.4909916  36.251732 40.2847424  36.111882 41.872244  C 35.393726 50.0516568  37.015246 65.2652136  46.11314 66.0627442  C 49.04246 66.3197682  51.669396 65.1556004  54.560918 61.4060728  C 56.231574 59.2327076  57.966486 55.2601738  58.850952 52.4480282  C 58.937886 52.1683256  59.02482 51.8772836  59.111756 51.5862416  C 59.644702 51.6845156  60.223006 51.7374322  60.850448 51.7336526  C 63.39423 51.7071942  65.280332 50.7471336  66.656168 49.2541262  C 66.516316 56.5415144  67.446138 65.8624166  73.108228 66.0778632  C 78.985762 66.3008694  82.187224 58.1857124  83.910798 53.1019276  C 83.634874 60.4460124  82.852464 71.7021544  82.852464 71.7021544  C 82.818446 72.0876906  82.780648 72.4883458  82.73907 72.90412  C 78.87615 75.6104322  75.115282 78.3469824  70.692958 81.661837  C 68.141616 83.5743984  65.97203 85.8687162  64.426106 88.2953256  C 62.876402 90.725715  61.984376 93.2392592  61.836966 95.5600352  C 61.663096 98.3154844  62.532442 100.6967368  64.34673 102.4581076  C 64.418546 102.5261434  64.497922 102.5866196  64.581076 102.6357566  C 66.225274 104.19302  68.345722 105.1266222  70.723196 105.2135568  C 74.703288 105.3647474  79.265466 103.146025  83.517702 97.725841  C 89.01726 90.5783042  90.582084 79.5451682  91.266222 70.3603376  C 91.273782 70.3565578  91.28134 70.3489984  91.2889 70.3452186  C 95.33325 67.6237874  98.598966 64.0897064  100.991558 59.8412498  C 102.968376 56.337407  104.389568 52.338415  105.342068 47.613708  C 105.49326 46.8766536  105.01323 46.1584982  104.276174 46.0073076  C 103.53912 45.8598966  102.820966 46.3361472  102.673554 47.0732014  C 101.77775 51.5106464  100.454832 55.2488346  98.621646 58.499433  C 96.762 61.7991684  94.418546 64.5394986  91.496788 66.822477  C 92.067532 57.1009198  92.298098 49.726597  92.385032 42.628197  C 92.366134 41.1994456  89.799672 39.8916468  87.717022 39.8122716  C 85.940532 39.7442358  84.258536 40.4775104  84.107346 42.8020662  C 82.799546 48.1542144  79.69258 62.275419  76.1396 62.1431272  C 74.242156 62.0713116  74.128764 54.8481794  74.99433 42.9230188  C 75.130402 41.0520348  73.629834 39.83873  71.60766 39.7631346  C 69.585486 39.6875394  67.378102 40.2053672  67.030364 42.9532568  C 67.007686 43.1838226  66.985006 43.4295074  66.962328 43.6903112  C 66.561674 46.4533198  65.030868 49.2994834  60.97518 49.2503464  C 60.521608 49.2465668  60.120952 49.1974298  59.761874 49.1180546  C 60.249464 47.0732014  60.593424 45.111503  60.665238 43.9586746  Z M 72.329596 83.8427618  C 75.97329 81.113771  79.167192 78.774096  82.338416 76.5251354  C 81.635378 82.1078494  80.388056 88.86985  78.139096 93.9649742  C 75.65579 99.6346226  72.25778 101.8987022  69.50233 101.7928688  C 68.126496 101.7399522  66.864054 101.1162908  65.866196 100.0617362  C 65.862416 100.065516  65.854856 100.0692958  65.851078 100.0768552  C 64.883458 98.9315862  64.448784 97.4725966  64.558398 95.7301248  C 64.807862 91.8029482  67.782538 87.2445508  72.329596 83.8427618  Z M 34.713368 69.9899206  C 34.52816 69.9559028  34.34295 69.937004  34.161522 69.937004  C 33.753308 69.937004  33.37533 70.0050396  33.027592 70.1411112  C 32.679854 70.2771828  32.377472 70.466171  32.124228 70.7118558  C 31.870984 70.9575406  31.670656 71.2523624  31.527026 71.596321  C 31.383394 71.9402798  31.311578 72.322036  31.311578 72.74159  C 31.311578 73.1535844  31.383394 73.5353408  31.523246 73.8792994  C 31.663096 74.2232582  31.859644 74.5218596  32.10911 74.7713242  C 32.358574 75.0207888  32.657176 75.2135568  33.001134 75.353408  C 33.345092 75.4932594  33.72307 75.5612952  34.131284 75.5612952  C 34.603754 75.5612952  35.01197 75.4705808  35.348368 75.2929318  C 35.684768 75.1152828  35.96069 74.8809374  36.172358 74.5936752  L 35.575154 74.1854606  C 35.412624 74.4160262  35.208518 74.5936752  34.962832 74.7146276  C 34.717148 74.8355802  34.441224 74.8960564  34.138844 74.8960564  C 33.832682 74.8960564  33.55298 74.83936  33.303516 74.7297468  C 33.05405 74.6201336  32.842384 74.4651632  32.668514 74.2723952  C 32.494646 74.079627  32.362354 73.8490614  32.26786 73.5882576  C 32.173366 73.3274536  32.128008 73.0439712  32.128008 72.74159  C 32.128008 72.450548  32.177146 72.1746252  32.27164 71.9138214  C 32.366134 71.6530176  32.502204 71.4262316  32.679854 71.2296838  C 32.857502 71.033136  33.06917 70.8781656  33.318634 70.7647726  C 33.568098 70.6513796  33.847802 70.5946832  34.161522 70.5946832  C 34.437444 70.5946832  34.698248 70.6551594  34.936374 70.7723322  C 35.1745 70.8895048  35.359708 71.0406954  35.492 71.2221242  L 36.081642 70.7685524  C 35.97959 70.6324808  35.858636 70.5115282  35.718786 70.4094746  C 35.578934 70.307421  35.420184 70.2204864  35.250094 70.1486708  C 35.080006 70.0768552  34.898576 70.0239386  34.713368 69.9899206  Z M 53.521482 70.1373314  C 53.173744 70.00126  52.795766 69.9332242  52.387552 69.9332242  C 51.979338 69.9332242  51.60136 70.00126  51.257402 70.1373314  C 50.913444 70.273403  50.614842 70.4623914  50.361598 70.708076  C 50.108354 70.9537608  49.911806 71.2485826  49.771954 71.5925412  C 49.632102 71.9365  49.560288 72.3182562  49.560288 72.7378102  C 49.560288 73.1498048  49.632102 73.531561  49.771954 73.8755198  C 49.911806 74.2194784  50.108354 74.5180798  50.361598 74.7675444  C 50.614842 75.017009  50.913444 75.209777  51.257402 75.3496284  C 51.60136 75.4894796  51.979338 75.5575154  52.387552 75.5575154  C 52.795766 75.5575154  53.173744 75.4894796  53.521482 75.3496284  C 53.86922 75.209777  54.167822 75.017009  54.421066 74.7675444  C 54.67431 74.5180798  54.870858 74.2194784  55.01449 73.8755198  C 55.15812 73.531561  55.229936 73.1498048  55.229936 72.7378102  C 55.229936 72.322036  55.15812 71.9402798  55.01449 71.5925412  C 54.870858 71.2485826  54.67431 70.9537608  54.421066 70.708076  C 54.167822 70.4623914  53.86922 70.273403  53.521482 70.1373314  Z M 71.573642 70.1222124  C 71.237244 69.9974802  70.855486 69.9332242  70.428374 69.9332242  C 70.020158 69.9332242  69.642182 70.00126  69.294444 70.1373314  C 68.946706 70.273403  68.644324 70.4623914  68.39108 70.708076  C 68.137836 70.9537608  67.937508 71.2485826  67.793876 71.5925412  C 67.650246 71.9365  67.57843 72.3182562  67.57843 72.7378102  C 67.57843 73.1498048  67.650246 73.531561  67.790098 73.8755198  C 67.929948 74.2194784  68.126496 74.5180798  68.37974 74.7675444  C 68.632984 75.017009  68.931586 75.209777  69.283104 75.3496284  C 69.634622 75.4894796  70.016378 75.5575154  70.435932 75.5575154  C 70.829028 75.5575154  71.191886 75.515938  71.524506 75.436563  C 71.857124 75.3571878  72.163286 75.2400152  72.446768 75.0888244  L 72.446768 72.4959052  L 70.519088 72.4959052  L 70.519088 73.1309058  L 71.705934 73.1309058  L 71.705934 74.6201336  C 71.550964 74.7070682  71.365756 74.7713242  71.154088 74.8166814  C 70.942422 74.8620386  70.711856 74.8847172  70.458612 74.8847172  C 70.141112 74.8847172  69.85385 74.8280206  69.596824 74.7184074  C 69.3398 74.6087942  69.124354 74.4538238  68.946706 74.2610558  C 68.769056 74.0682878  68.632984 73.837722  68.53849 73.5769182  C 68.443996 73.3161144  68.39486 73.0364118  68.39486 72.7378102  C 68.39486 72.4467684  68.443996 72.1708454  68.53849 71.9100416  C 68.632984 71.6492378  68.769056 71.4224518  68.946706 71.225904  C 69.124354 71.0293562  69.336022 70.8743858  69.589266 70.7609928  C 69.84251 70.6475998  70.122212 70.5909034  70.435932 70.5909034  C 70.742094 70.5909034  71.021796 70.64382  71.271262 70.7496536  C 71.520726 70.855487  71.724834 70.9953382  71.887362 71.1729872  L 72.40897 70.628701  C 72.185964 70.4170342  71.910042 70.2469446  71.573642 70.1222124  Z M 64.607534 70.1373314  C 64.259796 70.00126  63.88182 69.9332242  63.473604 69.9332242  C 63.06539 69.9332242  62.687414 70.00126  62.343454 70.1373314  C 61.999496 70.273403  61.700894 70.4623914  61.44765 70.708076  C 61.194406 70.9537608  60.997858 71.2485826  60.858006 71.5925412  C 60.718156 71.9365  60.64634 72.3182562  60.64634 72.7378102  C 60.64634 73.1498048  60.718156 73.531561  60.858006 73.8755198  C 60.997858 74.2194784  61.194406 74.5180798  61.44765 74.7675444  C 61.700894 75.017009  61.999496 75.209777  62.343454 75.3496284  C 62.687414 75.4894796  63.06539 75.5575154  63.473604 75.5575154  C 63.88182 75.5575154  64.259796 75.4894796  64.607534 75.3496284  C 64.955272 75.209777  65.253874 75.017009  65.507118 74.7675444  C 65.760362 74.5180798  65.95691 74.2194784  66.100542 73.8755198  C 66.244172 73.531561  66.315988 73.1498048  66.315988 72.7378102  C 66.315988 72.322036  66.244172 71.9402798  66.100542 71.5925412  C 65.95691 71.2485826  65.760362 70.9537608  65.507118 70.708076  C 65.253874 70.4623914  64.955272 70.273403  64.607534 70.1373314  Z M 75.614212 72.4883458  L 74.132544 70.0692958  L 73.21028 70.0692958  L 75.213556 73.1082272  L 75.213556 75.4252236  L 75.96951 75.4252236  L 75.96951 73.1082272  L 77.972786 70.0692958  L 77.10344 70.0692958  L 75.614212 72.4883458  Z M 57.512914 74.7599848  L 57.512914 70.0692958  L 56.76452 70.0692958  L 56.76452 75.4252236  L 59.901726 75.4252236  L 59.901726 74.7599848  L 57.512914 74.7599848  Z M 47.25085 74.3479904  L 44.453824 70.0692958  L 43.478644 70.0692958  L 43.478644 75.4252236  L 44.227038 75.4252236  L 44.227038 71.0520348  L 44.242156 71.0520348  L 47.069422 75.4252236  L 48.014364 75.4252236  L 48.014364 70.0692958  L 47.26597 70.0692958  L 47.26597 74.3479904  L 47.25085 74.3479904  Z M 38.198312 72.306917  L 38.198312 70.0692958  L 37.449918 70.0692958  L 37.449918 75.4252236  L 38.198312 75.4252236  L 38.198312 72.9721558  L 40.908404 72.9721558  L 40.908404 75.4252236  L 41.664356 75.4252236  L 41.664356 70.0692958  L 40.908404 70.0692958  L 40.908404 72.306917  L 38.198312 72.306917  Z M 29.958422 70.726975  L 29.958422 70.0692958  L 26.526396 70.0692958  L 26.526396 75.4252236  L 30.071816 75.4252236  L 30.071816 74.7599848  L 27.274788 74.7599848  L 27.274788 72.9721558  L 29.799672 72.9721558  L 29.799672 72.3295956  L 27.274788 72.3295956  L 27.274788 70.726975  L 29.958422 70.726975  Z M 25.297972 70.726975  L 25.297972 70.0692958  L 21.11755 70.0692958  L 21.11755 70.726975  L 22.833564 70.726975  L 22.833564 75.4252236  L 23.581958 75.4252236  L 23.581958 70.726975  L 25.297972 70.726975  Z M 62.634496 70.7609928  C 62.883962 70.6475998  63.163664 70.5909034  63.469824 70.5909034  C 63.783546 70.5909034  64.063248 70.6475998  64.312712 70.7609928  C 64.562178 70.8743858  64.773844 71.0293562  64.951494 71.225904  C 65.129142 71.4224518  65.265214 71.6492378  65.359708 71.9100416  C 65.454202 72.1708454  65.503338 72.4467684  65.503338 72.7378102  C 65.503338 73.0364118  65.457982 73.3161144  65.359708 73.5769182  C 65.265214 73.837722  65.129142 74.0682878  64.951494 74.2610558  C 64.773844 74.4538238  64.562178 74.6087942  64.308932 74.7184074  C 64.055688 74.8280206  63.775986 74.8847172  63.469824 74.8847172  C 63.163664 74.8847172  62.883962 74.8280206  62.638276 74.7184074  C 62.392592 74.6087942  62.180924 74.4538238  62.003276 74.2610558  C 61.825626 74.0682878  61.689556 73.837722  61.595062 73.5769182  C 61.500566 73.3161144  61.45143 73.0364118  61.45143 72.7378102  C 61.45143 72.4467684  61.500566 72.1708454  61.595062 71.9100416  C 61.689556 71.6492378  61.825626 71.4224518  61.999496 71.225904  C 62.173366 71.0293562  62.385032 70.8743858  62.634496 70.7609928  Z M 51.552224 70.7609928  C 51.801688 70.6475998  52.08139 70.5909034  52.387552 70.5909034  C 52.701272 70.5909034  52.980976 70.6475998  53.23044 70.7609928  C 53.479904 70.8743858  53.691572 71.0293562  53.86922 71.225904  C 54.04687 71.4224518  54.18294 71.6492378  54.277434 71.9100416  C 54.371928 72.1708454  54.421066 72.4467684  54.421066 72.7378102  C 54.421066 73.0364118  54.371928 73.3161144  54.277434 73.5769182  C 54.18294 73.837722  54.04687 74.0682878  53.86922 74.2610558  C 53.691572 74.4538238  53.479904 74.6087942  53.22666 74.7184074  C 52.973416 74.8280206  52.693712 74.8847172  52.387552 74.8847172  C 52.08139 74.8847172  51.801688 74.8280206  51.556004 74.7184074  C 51.310318 74.6087942  51.098652 74.4538238  50.921002 74.2610558  C 50.743354 74.0682878  50.607282 73.837722  50.512788 73.5769182  C 50.418294 73.3161144  50.369158 73.0364118  50.369158 72.7378102  C 50.369158 72.4467684  50.418294 72.1708454  50.512788 71.9100416  C 50.607282 71.6492378  50.743354 71.4224518  50.917224 71.225904  C 51.091092 71.0293562  51.30276 70.8743858  51.552224 70.7609928  Z M 25.532316 38.7879552  L 25.829628 38.7869838  L 25.532316 38.7879552  C 23.135946 38.8597706  21.525766 39.695099  21.29142 41.9289404  C 21.147788 43.2972156  20.992818 44.7637646  21.431272 48.9744236  C 21.899962 53.483684  24.114904 58.4389568  24.98425 60.0755954  C 26.473478 62.887741  29.20247 66.807358  31.390954 66.1232204  C 32.880182 65.6583092  32.347234 64.0367898  31.591282 62.162026  C 30.105834 58.4880938  29.497292 54.7045484  29.266726 50.5846038  C 29.104196 47.7233212  29.391458 43.8679602  29.606904 41.5849818  C 29.776994 39.8009324  27.611188 38.7274788  25.532316 38.7879552  Z M 56.806098 43.9170972  C 56.832556 42.6055184  57.342824 40.8101298  57.713242 40.8290286  C 58.083658 40.8479274  58.208392 42.2162026  58.132796 43.7356684  C 58.083658 44.741086  57.849314 46.1320398  57.512914 47.6401664  C 56.734282 46.4306414  56.7872 44.8318004  56.806098 43.9170972  Z M 29.633362 31.2133048  C 29.6636 28.8849692  27.90601 27.0858006  25.577674 27.0555626  C 23.188862 27.0253244  21.45017 28.7829154  21.419932 31.1112512  C 21.393474 33.500063  23.086808 35.2387552  25.47562 35.2689934  C 27.803956 35.2992314  29.603124 33.6058964  29.633362 31.2133048  Z " fill-rule="nonzero" fill="#464c59" stroke="none" transform="matrix(1 0 0 1 660 128 )" />
  </g>
</svg>