<?xml version="1.0" encoding="utf-8"?>
<svg version="1.1" xmlns:xlink="http://www.w3.org/1999/xlink" width="20px" height="15px" xmlns="http://www.w3.org/2000/svg">
  <g transform="matrix(1 0 0 1 -565 -18 )">
    <path d="M 10.2708333333333 11.6041666666667  C 10.0833333333333 11.8125  10.0833333333333 12.125  10.2708333333333 12.3541666666667  C 10.3541666666667 12.4375  12.3958333333333 14.7916666666667  15.0208333333333 14.7916666666667  C 17.6458333333333 14.7916666666667  19.6875 12.4375  19.7708333333333 12.3333333333333  C 19.9375 12.125  19.9375 11.8125  19.75 11.6041666666667  C 19.6666666666667 11.5  17.625 9.14583333333333  15 9.14583333333333  C 12.375 9.14583333333333  10.3541666666667 11.5  10.2708333333333 11.6041666666667  Z M 12.5208333333333 2.02083333333333  C 9.62500000000001 -0.645833333333334  5.10416666666667 -0.583333333333333  2.29166666666667 2.25  C -0.625 5.16666666666667  -0.625 9.91666666666666  2.29166666666667 12.8333333333333  C 2.375 12.9166666666667  2.47916666666666 13  2.56249999999999 13.1041666666667  C 2.70833333333333 13.25  2.91666666666667 13.3125  3.10416666666666 13.3125  C 3.3125 13.3125  3.54166666666667 13.2291666666667  3.68750000000001 13.0416666666667  C 3.97916666666667 12.7083333333333  3.95833333333333 12.2083333333333  3.625 11.9166666666667  L 3.41666666666666 11.6875  C 1.125 9.39583333333333  1.125 5.66666666666667  3.41666666666666 3.375  C 5.625 1.1875  9.12499999999999 1.10416666666667  11.4166666666667 3.125  L 10.5416666666667 4  C 10.2916666666667 4.25  10.4166666666667 4.6875  10.75 4.77083333333333  L 14.4166666666667 5.66666666666667  C 14.75 5.75  15.0625 5.4375  14.9791666666667 5.10416666666667  L 14.0833333333333 1.4375  C 14 1.08333333333333  13.5625 0.958333333333332  13.3125 1.22916666666667  L 12.5208333333333 2.02083333333333  Z M 5.75000000000001 13.1041666666667  C 5.33333333333334 12.9583333333333  4.875 13.1875  4.72916666666668 13.6041666666667  C 4.58333333333333 14.0208333333333  4.8125 14.4791666666667  5.22916666666667 14.625  C 5.35416666666668 14.6666666666667  5.47916666666666 14.7083333333333  5.60416666666666 14.75  C 5.66666666666668 14.7708333333333  5.75000000000001 14.7708333333333  5.81249999999999 14.7708333333333  C 6.16666666666667 14.7708333333333  6.47916666666667 14.5416666666667  6.58333333333334 14.1875  C 6.70833333333334 13.75  6.45833333333333 13.3125  6.04166666666667 13.1875  L 5.75000000000001 13.1041666666667  Z M 7.77083333333332 14.25  C 7.83333333333334 14.6458333333333  8.16666666666668 14.9375  8.56250000000001 14.9375  C 8.60416666666666 14.9375  8.64583333333333 14.9375  8.68750000000001 14.9375  C 8.81249999999999 14.9166666666667  8.95833333333333 14.8958333333333  9.08333333333334 14.875  C 9.52083333333334 14.7916666666667  9.79166666666667 14.375  9.70833333333334 13.9375  C 9.60416666666667 13.4791666666667  9.18750000000001 13.1875  8.75 13.2916666666667  L 8.4375 13.3333333333333  C 7.99999999999999 13.3958333333333  7.70833333333333 13.8125  7.77083333333332 14.25  Z M 15.0208333333333 13.9583333333333  C 13.9375 13.9583333333333  13.0416666666667 13.0833333333333  13.0416666666667 11.9791666666667  C 13.0416666666667 10.8958333333333  13.9166666666667 10  15.0208333333333 10  C 16.1041666666667 10  17 10.875  17 11.9791666666667  C 17 13.0625  16.1041666666667 13.9583333333333  15.0208333333333 13.9583333333333  Z M 8.37500000000001 4.16666666666667  C 8.37500000000001 3.72916666666667  8.02083333333333 3.375  7.58333333333333 3.375  C 7.14583333333332 3.375  6.79166666666667 3.72916666666667  6.79166666666667 4.16666666666667  L 6.79166666666667 7.52083333333333  C 6.79166666666667 7.79166666666667  6.93749999999999 8.04166666666666  7.16666666666666 8.1875  L 9.375 9.58333333333333  C 9.50000000000001 9.66666666666667  9.66666666666666 9.70833333333334  9.81250000000001 9.70833333333334  C 10.0416666666667 9.72916666666667  10.2916666666667 9.58333333333333  10.4583333333333 9.35416666666667  C 10.6875 8.97916666666666  10.5833333333333 8.47916666666666  10.2083333333333 8.25  L 8.37500000000001 7.08333333333333  L 8.37500000000001 4.16666666666667  Z M 16.0823567708333 11.24755859375  C 15.9705946180555 11.0560438368056  15.8189561631945 10.9044053819444  15.62744140625 10.7926432291667  C 15.4359266493055 10.6808810763889  15.2267795138889 10.625  15 10.625  C 14.7732204861111 10.625  14.5640733506945 10.6808810763889  14.37255859375 10.7926432291667  C 14.1810438368055 10.9044053819444  14.0294053819445 11.0560438368056  13.9176432291667 11.24755859375  C 13.8058810763889 11.4390733506944  13.75 11.6482204861111  13.75 11.875  C 13.75 12.1017795138889  13.8058810763889 12.3109266493056  13.9176432291667 12.50244140625  C 14.0294053819445 12.6939561631944  14.1810438368055 12.8455946180556  14.37255859375 12.9573567708333  C 14.5640733506945 13.0691189236111  14.7732204861111 13.125  15 13.125  C 15.2267795138889 13.125  15.4359266493055 13.0691189236111  15.62744140625 12.9573567708333  C 15.8189561631945 12.8455946180556  15.9705946180555 12.6939561631944  16.0823567708333 12.50244140625  C 16.1941189236111 12.3109266493056  16.25 12.1017795138889  16.25 11.875  C 16.25 11.6482204861111  16.1941189236111 11.4390733506944  16.0823567708333 11.24755859375  Z " fill-rule="nonzero" fill="#505050" stroke="none" transform="matrix(1 0 0 1 565 18 )" />
  </g>
</svg>