<?xml version="1.0" encoding="utf-8"?>
<svg version="1.1" xmlns:xlink="http://www.w3.org/1999/xlink" width="11px" height="14px" xmlns="http://www.w3.org/2000/svg">
  <g transform="matrix(1 0 0 1 -352 -13 )">
    <path d="M 0 0.777777777777778  C 0 0.348222972222222  0.328324516666667 0  0.733333333333333 0  C 1.13834215 0  1.46666666666667 0.348222972222222  1.46666666666667 0.777777777777778  L 1.46666666666667 1.46222222222222  C 2.244 1.12  3.3 0.777777777777778  4.4 0.777777777777778  C 6.6 0.777777777777778  6.6 2.33333333333333  8.06666666666667 2.33333333333333  C 10.2666666666667 2.33333333333333  11 0.777777777777778  11 0.777777777777778  L 11 7  C 11 7  10.2666666666667 8.55555555555556  8.06666666666667 8.55555555555556  C 5.86666666666667 8.55555555555556  5.86666666666667 7  4.4 7  C 2.2 7  1.46666666666667 8.55555555555556  1.46666666666667 8.55555555555556  L 1.46666666666667 14  L 0 14  L 0 0.777777777777778  Z " fill-rule="nonzero" fill="#505050" stroke="none" transform="matrix(1 0 0 1 352 13 )" />
  </g>
</svg>