<?xml version="1.0" encoding="utf-8"?>
<svg version="1.1" xmlns:xlink="http://www.w3.org/1999/xlink" width="21px" height="19px" xmlns="http://www.w3.org/2000/svg">
  <g transform="matrix(1 0 0 1 -5 -6 )">
    <path d="M 16 4  L 16 0  L 4 0  L 4 4  L 16 4  Z M 18 8  C 18 8.5522847  17.5522847 9  17 9  C 16.4477153 9  16 8.5522847  16 8  C 16 7.4477153000000005  16.4477153 7  17 7  C 17.5522847 7  18 7.4477153000000005  18 8  Z M 14 11  L 14 16  L 6 16  L 6 11  L 14 11  Z M 20 8  C 20 6.3431458  18.6568542 5  17 5  L 3 5  C 1.3431457499999997 5  0 6.3431458  0 8  L 0 14  L 4 14  L 4 18  L 16 18  L 16 14  L 20 14  L 20 8  Z " fill-rule="nonzero" fill="#505050" stroke="none" transform="matrix(1 0 0 1 5 6 )" />
  </g>
</svg>