<?xml version="1.0" encoding="utf-8"?>
<svg version="1.1" xmlns:xlink="http://www.w3.org/1999/xlink" width="18px" height="25px" xmlns="http://www.w3.org/2000/svg">
  <g transform="matrix(1 0 0 1 -6 0 )">
    <path d="M 7.9120879 22  C 7.9120879 21.4477153  8.3548832 21  8.9010989 21  C 9.4082992 21  9.8263258 21.3860402  9.8834561 21.8833789  L 9.8901099 22  L 9.89 22.355  L 10.5224411 22.0008427  C 10.9999195 21.7326295  11.6020326 21.9065733  11.8672984 22.3893571  C 12.1136166 22.8376562  11.9828768 23.3946151  11.580647 23.68664  L 11.4830534 23.7491573  L 9.9606124 24.6043556  C 9.817364 24.6848223  9.6666985 24.7459944  9.5121728 24.7878719  C 9.3437657 24.9202396  9.1316445 25  8.9010989 25  C 8.6099107 25  8.3481143 24.8727608  8.1671268 24.6702709  L 8.0393876 24.6043556  L 6.5169466 23.7491573  C 6.0394681 23.4809441  5.8674358 22.8721408  6.1327016 22.3893571  C 6.3790198 21.9410579  6.915783 21.7590544  7.3735026 21.9500876  L 7.4775589 22.0008427  L 7.912 22.245  L 7.9120879 22  Z M 16.021978 17  C 16.021978 16.4477153  16.4647733 16  17.010989 16  C 17.5181893 16  17.9362159 16.3860402  17.9933462 16.8833789  L 18 17  L 18 18.9115967  C 18 19.582059  17.6681554 20.2038741  17.1232003 20.5730096  L 16.9825904 20.6599112  L 15.488548 21.4991573  C 15.0110695 21.7673705  14.4089564 21.5934267  14.1436906 21.1106429  C 13.8973724 20.6623438  14.0281122 20.1053849  14.430342 19.81336  L 14.5279356 19.7508427  L 16.021978 18.9115967  L 16.021978 17  Z M 0 17  C 0 16.4477153  0.4427953 16  0.98901099 16  C 1.49621127 16  1.91423785 16.3860402  1.97136818 16.8833789  L 1.97802198 17  L 1.97802198 18.9115967  L 3.47206444 19.7508427  C 3.94954285 20.0190559  4.1215752 20.6278592  3.85630939 21.1106429  C 3.60999116 21.5589421  3.07322802 21.7409456  2.61550835 21.5499124  L 2.51145205 21.4991573  L 1.01740959 20.6599112  C 0.43776056 20.3343059  0.0613276000000003 19.7390183  0.00684472000000014 19.0780807  L 0 18.9115967  L 0 17  Z M 10.1411813 13.1317569  C 10.6154293 12.8577469  11.2195713 13.0243436  11.4905701 13.5038611  C 11.7422119 13.9491273  11.6181177 14.5076383  11.2193966 14.8045416  L 11.122555 14.8682431  L 9.89 15.58  L 9.8901099 17  C 9.8901099 17.5522847  9.4473146 18  8.9010989 18  C 8.3938986 18  7.975872 17.6139598  7.9187417 17.1166211  L 7.9120879 17  L 7.912 15.58  L 6.6796428 14.8682431  C 6.2053948 14.5942332  6.0406288 13.9833785  6.3116277 13.5038611  C 6.5632695 13.0585949  7.1021622 12.883143  7.5575725 13.0797379  L 7.6610165 13.1317569  L 8.9010989 13.847  L 10.1411813 13.1317569  Z M 14.1436906 8.88935707  C 14.3900088 8.44105789  14.926772 8.25905437  15.3844917 8.45008759  L 15.488548 8.50084272  L 16.9825904 9.3400888  C 17.5622394 9.66569411  17.9386724 10.2609817  17.9931553 10.9219193  L 18 11.0884033  L 18 13  C 18 13.5522847  17.5572047 14  17.010989 14  C 16.5037887 14  16.0857621 13.6139598  16.0286318 13.1166211  L 16.021978 13  L 16.021 12.037  L 14.5840935 12.8682431  C 14.1098454 13.1422531  13.5057035 12.9756564  13.2347046 12.4961389  C 12.9830628 12.0508727  13.107157 11.4923617  13.5058781 11.1954584  L 13.6027197 11.1317569  L 14.832 10.42  L 14.5279356 10.2491573  C 14.0504571 9.98094409  13.8784248 9.3721408  14.1436906 8.88935707  Z M 2.51145205 8.50084272  C 2.98893046 8.23262954  3.59104361 8.40657334  3.85630939 8.88935707  C 4.1026276 9.33765625  3.97188779 9.89461515  3.56965799 10.18664  L 3.47206444 10.2491573  L 3.066 10.477  L 4.1994781 11.1317569  C 4.6737261 11.4057668  4.8384921 12.0166215  4.5674932 12.4961389  C 4.3158514 12.9414051  3.77695866 13.116857  3.32154835 12.9202621  L 3.21810435 12.8682431  L 1.978 12.152  L 1.97802198 13  C 1.97802198 13.5522847  1.53522668 14  0.98901099 14  C 0.48181071 14  0.0637841300000002 13.6139598  0.0066537999999996 13.1166211  L 0 13  L 0 11.0884033  C 0 10.417941  0.33184457 9.79612591  0.87679971 9.42699043  L 1.01740959 9.3400888  L 2.51145205 8.50084272  Z M 5 4  L 9 0  L 13 4  L 10 4  L 10 8  L 8 8  L 8 4  L 5 4  Z " fill-rule="nonzero" fill="#505050" stroke="none" transform="matrix(1 0 0 1 6 0 )" />
  </g>
</svg>