<?xml version="1.0" encoding="utf-8"?>
<svg version="1.1" xmlns:xlink="http://www.w3.org/1999/xlink" width="23px" height="24px" xmlns="http://www.w3.org/2000/svg">
  <g transform="matrix(1 0 0 1 -4 -3 )">
    <path d="M 18 16  L 20 16  L 20 20  L 23 20  L 19 24  L 15 20  L 18 20  L 18 16  Z M 8.43 0.18  C 8.59 0.06  8.79 0  9 0  C 9.21 0  9.41 0.06  9.57 0.18  L 17.47 4.62  C 17.79 4.79  18 5.12  18 5.5  L 18 11.171  L 16.4142136 9.58578644  C 16.2877929 9.45936581  16.1486586 9.35340765  16.0009262 9.26791194  L 16 7.21  L 10 10.58  L 10 13.17  L 9.5857864 13.5857864  C 8.59253867 14.5790342  8.93686532 16.1280993  10.0000893 16.7393632  L 10 17.29  L 10.5892226 16.9600255  C 10.6764053 16.9774428  10.7664185 16.9894035  10.8590694 16.995442  L 11 17  L 12 17  L 12 18.454  L 9.57 19.82  C 9.41 19.94  9.21 20  9 20  C 8.79 20  8.59 19.94  8.43 19.82  L 0.53 15.38  C 0.21 15.21  0 14.88  0 14.5  L 0 5.5  C 0 5.12  0.21 4.79  0.53 4.62  L 8.43 0.18  Z M 11 15  L 15 11  L 19 15  L 16 15  L 16 19  L 14 19  L 14 15  L 11 15  Z M 8 10.58  L 2 7.21  L 2 13.91  L 8 17.29  L 8 10.58  Z M 14.96 5.5  L 9 2.15  L 3.04 5.5  L 9 8.85  L 14.96 5.5  Z " fill-rule="nonzero" stroke="none" transform="matrix(1 0 0 1 4 3 )" />
  </g>
</svg>
