<?xml version="1.0" encoding="utf-8"?>
<svg version="1.1" xmlns:xlink="http://www.w3.org/1999/xlink" width="20px" height="20px" xmlns="http://www.w3.org/2000/svg">
  <g>
    <path d="M 17.0710678 17.0710678  C 18.9464316 15.195704  20 12.6521649  20 10  C 20 7.3478351  18.9464316 4.80429597  17.0710678 2.92893219000001  C 15.195704 1.05356840000002  12.6521649 0  10 0  C 4.47715249999999 0  0 4.47715249999999  0 10  C 0 12.6521649  1.05356840000002 15.195704  2.92893218999996 17.0710678  C 4.80429597 18.9464316  7.3478351 20  10 20  C 12.6521649 20  15.195704 18.9464316  17.0710678 17.0710678  Z M 10 2  C 11.845499451662 2  13.5473955721303 2.62870238900689  14.9026833526491 3.68310308497781  L 3.68310262698423 14.9026838228978  C 2.62870239113733 13.5473955778974  2 11.8454994547889  2 10  C 2 5.58999999999997  5.59000000000003 2  10 2  Z M 5.0973166473509 16.3168969150222  L 16.3168973730158 5.09731617710223  C 17.3712976088627 6.45260442210259  18 8.1545005452111  18 10  C 18 14.41  14.41 18  10 18  C 8.15450054833795 18  6.45260442786967 17.3712976109931  5.0973166473509 16.3168969150222  Z " fill-rule="nonzero" fill="#000000" stroke="none" />
  </g>
</svg>