<?xml version="1.0" encoding="utf-8"?>
<svg version="1.1" xmlns:xlink="http://www.w3.org/1999/xlink" width="19px" height="18px" xmlns="http://www.w3.org/2000/svg">
  <g transform="matrix(1 0 0 1 -6 -6 )">
    <path d="M 0 8.9781958  C 0 4.0181274  4.0615648 0  9.0218042 0  C 13.9820436 0  18.0436084 4.0179564  18.0436084 8.9781958  C 18.0436084 13.9384352  13.9820436 18  9.0218042 18  C 4.0615648 18  0 13.9799059  0 8.9781958  Z M 16.2462591 8.9781958  C 16.2462591 5.0036768  12.9982044 1.75374091  9.0218042 1.75374091  C 5.0456178 1.75374091  1.79734929 4.9602394  1.79734929 8.9781958  C 1.79734929 12.9961522  5.0456178 16.2026507  9.0218042 16.2026507  C 12.9979906 16.2026507  16.2462591 12.954596  16.2462591 8.9781958  Z M 5.8589141 8.9781958  C 5.8589141 7.2680633  7.2684053 5.8151347  9.0219752 5.8151347  C 10.773835 5.8151347  12.1850363 7.2246259  12.1850363 8.9781958  C 12.1850363 10.7300556  10.7755451 12.1412569  9.0219752 12.1412569  C 7.2701154 12.1412569  5.8589141 10.7317657  5.8589141 8.9781958  Z M 3.16502779 7.309876  C 3.71945276 5.2590851  5.3444207 3.63411714  7.3969218 3.07798204  C 7.8678923 2.94938008  8.3805985 3.24831124  8.509192 3.71928174  C 8.6377939 4.1902522  8.3388628 4.7029585  7.8678923 4.8315519  C 6.4149637 5.2590851  5.2592732 6.3713553  4.8751603 7.8242839  C 4.7899786 8.2517999  4.4476272 8.5073194  4.0635143 8.4655665  C 3.97667379 8.4655665  3.89150064 8.4655665  3.80632749 8.4221462  C 3.33537409 8.2935442  3.03643437 7.7808465  3.16502779 7.309876  Z M 10.3897392 8.9781958  C 10.3897392 8.2082941  9.7918769 7.6104318  9.0219752 7.6104318  C 8.2520735 7.6104318  7.6542112 8.2517315  7.6542112 8.9781958  C 7.6542112 9.7480975  8.2520735 10.3459598  9.0219752 10.3459598  C 9.7918769 10.3459598  10.3897392 9.7480975  10.3897392 8.9781958  Z " fill-rule="nonzero" stroke="none" transform="matrix(1 0 0 1 6 6 )" />
  </g>
</svg>